<svg class="intro-block__svg" xmlns="http://www.w3.org/2000/svg" viewBox="-249 105.9 459.8 350.1">
<g class="intro-block__subtitle">
	<g>
		<path fill="#766458" d="M-83.6,176l-0.2,0.2c-1.4,1.5-3,2.2-4.5,2.2l2.8-4.9c1.8-3.1,0.1-6.1-2.7-6.1c-2.3,0-4.1,0.9-5.8,3.9
			l-1.5,2.6l-1.2,2.1l-0.2,0.2c-2.2,2.5-4.3,4.5-5.6,4.5c-0.7,0-1-0.5-0.3-1.6l6.4-11.2h2.4l0.9-1.4h-2.5l2.8-4.9h-3l-2.8,4.9h-2.7
			l-0.9,1.4h2.7l-6,10.4c-1.3,2.2-0.4,4.3,2,4.3c1.7,0,3.7-1.3,5.5-3.1c0,3.8,5.3,4.6,8.5,0.5h0.7c1.8,0,4.6-1.1,6.1-2.9
			C-82.7,176.6-83.2,176.2-83.6,176z M-90,176.2h-0.1c-1,0-1.8,0.8-1.8,1.8c0,0.4,0.1,0.7,0.3,1v0.1c-1.4,2.4-4.8,2-3.1-1.2l2.3-3.9
			l1.4-2.4c2.1-3.6,5-2.2,3.2,0.9L-90,176.2z"/>
		<path fill="#766458" d="M-42.1,176l-0.2,0.2c-2.2,2.5-4.9,4.5-7,4.5c-1.8,0-2.9-1.2-1.6-3.6l0.3-0.5c1.9,0.8,5.6,0.4,7.8-3.5
			l0.4-0.7c1.6-2.8,0.1-4.8-2.4-4.8c-2.4,0-4.3,1.3-5.6,3.5l-2.9,5l-0.2,0.2c-2.2,2.5-4.3,4.5-5.6,4.5c-0.7,0-1-0.5-0.3-1.6l4.3-7.6
			c1.3-2.3,0.1-3.9-1.6-3.9c-1.3,0-2.7,0.7-4.2,2.3l4.8-8.3h-3l-8.3,14.3l-0.2,0.2c-2.2,2.5-4.3,4.5-5.6,4.5c-0.7,0-1-0.5-0.3-1.6
			l6.4-11.2h2.4l0.9-1.4h-2.5l2.8-4.9h-3l-2.8,4.9H-72l-0.9,1.4h2.7l-6,10.4c-1.3,2.2-0.4,4.3,2,4.3c1.2,0,2.5-0.6,3.8-1.6l-0.8,1.3
			h3l4.5-7.9c4.6-5.8,6.6-5,5.4-2.8l-3.9,6.8c-1.3,2.2-0.4,4.3,2,4.3c1.8,0,3.8-1.4,5.6-3.2c0.1,1.9,1.7,3.2,4.1,3.2
			c3.4,0,6.8-2.6,9.2-5.5C-41.2,176.6-41.7,176.2-42.1,176z M-47.8,171.8c1.7-3,4.8-2.5,3,0.6l-0.4,0.7c-1.4,2.4-3.4,2.4-4.5,2
			L-47.8,171.8z"/>
		<path fill="#766458" d="M67,176l-0.2,0.2c-1.1,1.3-2.4,2.4-3.6,3.3c1-2.9,0.7-7.2,2.6-11.1l-2.2-1.2c-1.2,1.7-3.9,5.6-6.7,8.8l0,0
			l-0.2,0.2c-2.2,2.5-4.3,4.5-5.6,4.5c-0.7,0-1-0.5-0.3-1.6l6.4-11.2h-3l-5.3,9.3c-2.3,2.1-4,3.2-4.6,3c-0.7-0.3,0-1.4,0.4-2.1
			l5.8-10.2h-3l-4.7,8.1l-0.2,0.2c-1.4,1.5-3,2.2-4.5,2.2l2.8-4.9c1.8-3.1,0.1-6.1-2.7-6.1c-2.3,0-4.1,0.9-5.8,3.9l-1.5,2.6
			l-1.2,2.1l-0.2,0.2c-2.2,2.5-4.9,4.5-7,4.5c-1.8,0-2.9-1.2-1.6-3.6l0.3-0.5c1.9,0.8,5.6,0.4,7.8-3.5l0.4-0.7
			c1.6-2.8,0.1-4.8-2.4-4.8c-2.4,0-4.3,1.3-5.6,3.5l-2.9,5l-0.2,0.2c-2.5,2.9-4.6,4.7-7,5.7l6.7-11.5h-1.8c0-1.2-1.3-2.9-3.1-2.9
			c-1.6,0-3.9,1.3-5.1,3.5l-2.9,5l0,0l-0.2,0.2c-2.2,2.5-4.3,4.5-5.6,4.5c-0.7,0-1-0.5-0.3-1.6l3-5.2c1-1.8,0.5-2.9-0.4-4.1l-1.7-2
			c-0.4-0.5-0.4-1.2,0.2-1.7l-1.6-1.7c-1.7,1.5-1.8,3.2-0.8,4.6l0.3,0.3c-1.3,1.9-3.1,4.4-5.1,6.7l0,0l-0.2,0.2
			c-1.4,1.5-3,2.2-4.5,2.2l2.8-4.9c1.8-3.1,0.1-6.1-2.7-6.1c-2.3,0-4.1,0.9-5.8,3.9l-1.5,2.6l-1.2,2.1l-0.2,0.2
			c-2.5,2.9-4.6,4.7-7,5.7l6.7-11.5h-1.8c0-1.2-1.3-2.9-3.1-2.9c-1.6,0-3.9,1.3-5.1,3.5l-4.2,7.3c-1.3,2.2-0.4,4.3,2,4.3
			c0.8,0,1.8-0.4,2.9-1l-0.8,1.4c-4,1.2-6.6,2.9-6.6,5.1c0,2.9,4.4,3.5,6.6-0.2l2.3-3.9c2.4-0.7,4.7-2.2,7.2-4.5
			c0,3.8,5.3,4.6,8.5,0.5h0.7c1.8,0,4.6-1.1,6.1-2.9l0,0c1.4-1.7,2.6-3.2,5-6.4l0.4,0.5c0.4,0.5,0.5,1.1,0.2,1.7l-3.2,5.5
			c-1.3,2.2-0.4,4.3,2,4.3c1.5,0,3.2-1,4.8-2.4c0,1.4,0.9,2.4,2.6,2.4c0.8,0,1.8-0.4,2.9-1L8,183c-4,1.2-6.6,2.9-6.6,5.1
			c0,2.9,4.4,3.5,6.6-0.2l2.3-3.9c2.4-0.8,4.8-2.2,7.3-4.6c0.1,1.9,1.6,3.2,4.1,3.2c2.4,0,4.9-1.4,6.9-3.2c-0.1,3.9,5.3,4.7,8.5,0.6
			h0.7c0.9,0,2.2-0.3,3.3-0.9c-0.8,2.1-0.1,3.5,1.6,3.5c1.6,0,3.5-1.5,4.9-2.9c-0.3,1.6,0.7,2.9,2.6,2.9c2.5,0,5.3-2.6,7.8-5.5l0,0
			c1.7-2,3.2-4.1,4.3-5.5c-1.2,3.1-0.5,8.7-3.4,8.7c-1,0-1.4-1.1-1.4-1.1l-1.9,1c0,0,0.5,2.4,3.3,2.4c0.3,0,0.5,0,0.8-0.1h0.1
			c3.1-0.4,6.1-2.8,8.3-5.4C68,176.6,67.5,176.1,67,176z M24.1,171.8c1.7-3,4.8-2.5,3,0.6l-0.4,0.7c-1.4,2.4-3.4,2.4-4.5,2
			L24.1,171.8z M-33.1,187.4c-0.6,1.1-1.6,1-1.6,0.1c0-0.8,0.7-1.7,3-2.6L-33.1,187.4z M-31.7,180.7c-0.7,0-1-0.5-0.3-1.6l4.2-7.3
			c1.6-2.8,4.8-2.1,3.3,0.6l-2.3,4C-28.6,179.3-30.5,180.7-31.7,180.7z M-13.3,176.2h-0.1c-1,0-1.8,0.8-1.8,1.8c0,0.4,0.1,0.7,0.3,1
			v0.1c-1.4,2.4-4.8,2-3.1-1.2l2.3-3.9l1.4-2.4c2.1-3.6,5-2.2,3.2,0.9L-13.3,176.2z M5.5,187.4c-0.6,1.1-1.6,1-1.6,0.1
			c0-0.8,0.7-1.7,3-2.6L5.5,187.4z M6.9,180.7c-0.7,0-1-0.5-0.3-1.6l4.2-7.3c1.6-2.8,4.8-2.1,3.3,0.6l-2.3,4
			C10,179.3,8.1,180.7,6.9,180.7z M36.4,176.2h-0.1c-1,0-1.8,0.8-1.8,1.8c0,0.4,0.1,0.7,0.3,1v0.1c-1.4,2.4-4.8,2-3.1-1.2L34,174
			l1.4-2.4c2.1-3.6,5-2.2,3.2,0.9L36.4,176.2z"/>
	</g>
	<rect x="-147.6" y="172.8" fill="#766458" width="28.9" height="2"/>
	<rect x="79.4" y="172.8" fill="#766458" width="28.9" height="2"/>
	<g>
		<path fill="#81B3D3" d="M-85.8,106h7.7l-1.2,44.9h-14.5l-2-18.5l-2,18.5h-14.6l-1.1-44.9h7.6l0.6,37.2h0.8l4.9-37.2h7.6l4.9,37.2
			h0.8L-85.8,106z"/>
		<path fill="#81B3D3" d="M-54,143.2v7.8h-20.9v-45H-54v7.7h-13.3v10.8h10.6v7.7h-10.6v10.9H-54V143.2z"/>
		<path fill="#81B3D3" d="M-32.6,143.2v7.8h-18.3v-45h7.6v37.2H-32.6z"/>
		<path fill="#81B3D3" d="M-16.4,134.4l7.7-1.8v13.6c0,2.6-2.2,4.7-4.7,4.7h-11.5c-2.6,0-4.7-2.2-4.7-4.7v-35.5
			c0-2.6,2.1-4.7,4.7-4.7h11.5c2.5,0,4.7,2.1,4.7,4.7v9.1l-7.7,1.8v-8h-5.5v29.5h5.5V134.4L-16.4,134.4z"/>
		<path fill="#81B3D3" d="M12.1,106c2.5,0,4.7,2.1,4.7,4.7v35.4c0,2.6-2.2,4.7-4.7,4.7H0.6c-2.6,0-4.7-2.2-4.7-4.7v-35.4
			c0-2.6,2.1-4.7,4.7-4.7H12.1z M9.1,113.7H3.6v29.5h5.5V113.7z"/>
		<path fill="#81B3D3" d="M41.8,106h7.6v44.9h-7.6v-22.1l-3.1,11.4h-7.5l-3-11.4v22.1h-7.6V106h7.6l6.8,21.7L41.8,106z"/>
		<path fill="#81B3D3" d="M74.1,143.2v7.8H53.2v-45h20.9v7.7H60.8v10.8h10.6v7.7H60.8v10.9h13.3V143.2z"/>
	</g>
</g>
<g class="intro-block__title">
	<path fill="#FFFFFF" d="M-204.5,263.6c-3.6-3-8.1-5-12.9-5c-3.6,0-8.3,2.1-8.3,6.3c0,4.4,5.3,6.1,8.6,7.1l5,1.5
		c10.4,3.1,18.5,8.3,18.5,20.4c0,7.4-1.8,15.1-7.7,20.1c-5.9,5-13.7,7-21.2,7c-9.4,0-18.7-3.2-26.3-8.5l8.1-15.5
		c4.9,4.3,10.6,7.7,17.3,7.7c4.6,0,9.4-2.3,9.4-7.5c0-5.5-7.6-7.3-11.8-8.5c-12.2-3.6-20.2-6.7-20.2-21.2
		c0-15.2,10.8-25.1,25.8-25.1c7.5,0,16.8,2.4,23.4,6.2L-204.5,263.6z"/>
	<path fill="#FFFFFF" d="M-157.2,260.8v12.5h21.9v16.5h-21.9v12.9h23.2v16.5h-42.6v-74.8h42.6v16.5L-157.2,260.8L-157.2,260.8z"/>
	<path fill="#FFFFFF" d="M-119.6,244.4H-92c20.8,0,38,16.4,38,37.4s-17.3,37.4-38,37.4h-27.6V244.4z M-100.1,302.7h4.4
		c11.6,0,21.5-6.4,21.5-20.9c0-13.4-8.8-20.9-21.3-20.9h-4.6L-100.1,302.7L-100.1,302.7z"/>
	<path fill="#FFFFFF" d="M37.9,280.4c0,24.2-17.4,41.3-41.4,41.3s-41.4-17.1-41.4-41.3c0-22.6,19.9-38.5,41.4-38.5
		S37.9,257.8,37.9,280.4z M-24.7,280.5c0,12.9,9.5,22.3,21.1,22.3c11.6,0,21.1-9.4,21.1-22.3c0-10.3-9.5-19.8-21.1-19.8
		C-15.1,260.7-24.7,270.2-24.7,280.5z"/>
	<path fill="#FFFFFF" d="M48.2,244.4h19.5l35.6,45.8h0.2v-45.8H123v74.8h-19.5l-35.6-45.9h-0.2v45.9H48.1L48.2,244.4L48.2,244.4z"/>
	<path fill="#FFFFFF" d="M158.3,306.2l-5.2,13h-20.6l28.8-74.8h21.2l28.2,74.8H190l-4.9-13H158.3z M171.9,267.5h-0.2l-8,23.8h16.2
		L171.9,267.5z"/>
</g>
<g class="intro-block__quote">
	<g>
		<path fill="#FFFFFF" d="M-140.9,393.7c7.7-2.6,8.2-12.2,0.7-12.2c-2.1,0-4.6,1.5-6.3,4.4l-10.2,17.7c-0.5,0.8-0.9,1.5-1.5,2.2
			c-2.6-3.6-1.9-9,1.8-11.4l-1.5-1.9c-8,5.1-5.6,19.7,7.7,19.7C-138.9,412.2-133.6,398.6-140.9,393.7z M-150.3,409.3
			c-2.3,0-4-0.5-5.5-1.3c0.7-0.8,1.3-1.7,1.9-2.7l6.4-11.1l1,0.1C-137.6,396.2-141.1,409.3-150.3,409.3z M-146.2,392l3.1-5.3
			c2.8-4.8,6.3-2,4.4,1.6C-140.2,391.1-142.3,391.9-146.2,392z"/>
		<path fill="#FFFFFF" d="M-108.8,406c-0.6,2.2,0.6,4.1,3.1,4.1c1.5,0,3.4-1,5.3-2.5c0.2,1.5,1.4,2.5,3.3,2.5c2,0,4.2-1.4,6.4-3.4
			c-0.4,2,0.5,3.4,2.4,3.4c2.1,0,4.4-1.9,6.2-3.6c-0.4,2,0.8,3.6,3.2,3.6c3.1,0,6.7-3.4,9.9-7c0-0.1-0.1-0.1-0.1-0.2
			c2.1-2.4,3.9-5,5.3-6.8c-1.5,3.9-0.7,11-4.3,11c-1.3,0-1.8-1.4-1.8-1.4l-2.4,1.2c0,0,0.7,3.1,4.2,3.1c0.4,0,0.7,0,1.1-0.1h0.1
			c2.8-0.4,5.5-2.1,7.9-4.2c0.1,2.5,2,4.3,5.1,4.3c4.3,0,8.6-3.4,11.7-7c-0.3-0.5-0.9-1.1-1.4-1.3l-0.3,0.3
			c-2.7,3.2-6.2,5.7-8.9,5.7c-2.3,0-3.7-1.5-2-4.5l0.4-0.7c2.4,1,7,0.5,9.9-4.4l0.5-0.9c2-3.5,0.1-6.1-3-6.1s-5.5,1.6-7.1,4.4
			l-3.7,6.3H-58l-0.3,0.3c-1.4,1.6-3.1,3.1-4.6,4.1c1.2-3.6,0.9-9.2,3.3-14l-2.8-1.5c-1.6,2.2-5,7.1-8.4,11.1l0.1,0.1l-0.1,0.2
			c-2.7,3.2-5.4,5.7-7.1,5.7c-0.8,0-1.3-0.6-0.4-2.1l8.1-14.2H-74l-6.7,11.8c-2.9,2.6-5.1,4.1-5.8,3.8c-0.9-0.4,0-1.8,0.5-2.6
			l7.4-12.9h-3.8l-6,10.4c-0.1-0.1-0.2-0.1-0.3-0.2l-0.3,0.3c-2.7,3.2-5.4,5.7-7.1,5.7c-0.8,0-1.3-0.6-0.4-2.1l6.1-10.7h-2.2
			c0.1-1.6-1.5-3.8-4-3.8c-2,0-4.9,1.6-6.5,4.4l-3.8,6.6c-0.2-0.2-0.4-0.3-0.6-0.4l-0.3,0.3c-2.7,3.2-6.2,5.7-8.9,5.7
			c-2.3,0-3.7-1.5-2-4.5l3.9-6.8c2.2-3.8,6.1-3.1,3.8,0.8l-0.5,0.9h3.1l0.5-0.9c2-3.5,0.1-6.1-3-6.1s-5.5,1.6-7.1,4.4l-3.8,6.5
			c-0.1-0.1-0.2-0.1-0.3-0.2l-0.3,0.3c-2.7,3.2-6.2,5.7-8.9,5.7c-2.3,0-3.7-1.5-2-4.5l0.4-0.7c2.4,1,7,0.5,9.9-4.4l0.5-0.9
			c2-3.5,0.1-6.1-3-6.1s-5.5,1.6-7.1,4.4l-4,6.8c-2.4,4-0.3,7.8,4.2,7.8c3.3,0,6.7-2,9.4-4.6c-0.1,2.6,1.9,4.6,5.1,4.6
			C-114.6,410.1-111.5,408.3-108.8,406z M-50.8,396.4c2.2-3.8,6.1-3.1,3.8,0.8l-0.5,0.9c-1.8,3.1-4.3,3-5.7,2.5L-50.8,396.4z
			 M-105,405.7l5.3-9.2c2-3.5,6.1-2.6,4.2,0.8l-3,5.2c-2.3,3.6-4.6,5.3-6.1,5.3C-105.4,407.7-105.9,407.2-105,405.7z M-129.2,396.4
			c2.2-3.8,6.1-3.1,3.8,0.8l-0.5,0.9c-1.8,3.1-4.3,3-5.7,2.5L-129.2,396.4z"/>
		<path fill="#FFFFFF" d="M-0.6,410.1c4.3,0,8.6-3.4,11.7-7c-0.3-0.5-0.9-1.1-1.4-1.3l-0.3,0.3c-2.7,3.2-6.2,5.7-8.9,5.7
			c-2.3,0-3.7-1.5-2-4.5l0.4-0.7c2.4,1,7,0.5,9.9-4.4l0.5-0.9c2-3.5,0.1-6.1-3-6.1s-5.5,1.6-7.1,4.4l-3.7,6.3c0,0-0.1,0-0.1-0.1
			l-0.3,0.3c-2.7,3.2-5.4,5.7-7.1,5.7c-0.8,0-1.3-0.6-0.4-2.1l5.5-9.6c1.6-2.9,0.1-5-2-5c-1.6,0-3.4,0.9-5.3,2.9l6.1-10.5H-12
			L-22.7,402c-0.1-0.1-0.3-0.2-0.4-0.3l-0.3,0.3c-2.7,3.2-5.4,5.7-7.1,5.7c-0.8,0-1.3-0.6-0.4-2.1l8.1-14.2h3.1l1.1-1.8h-3.1
			l3.6-6.2h-3.8l-3.6,6.2h-3.4l-1.1,1.8h3.5l-7.6,13.2c-1.6,2.8-0.5,5.4,2.6,5.4c1.9,0,3.9-1.2,6-3l-1.5,2.6h3.8l5.8-10
			c5.8-7.3,8.4-6.4,6.8-3.6l-4.9,8.6c-1.6,2.8-0.5,5.4,2.6,5.4c2.3,0,4.9-1.8,7.3-4.2C-5.6,408.3-3.7,410.1-0.6,410.1z M2.5,396.4
			c2.2-3.8,6.1-3.1,3.8,0.8l-0.5,0.9c-1.8,3.1-4.3,3-5.7,2.5L2.5,396.4z"/>
		<path fill="#FFFFFF" d="M114.4,401.8l-0.3,0.3c-2.7,3.2-5.4,5.7-7.1,5.7c-0.8,0-1.3-0.6-0.4-2.1l12.8-22.2h-3.8l-5.6,9.6
			c-0.7-1.1-1.9-2-3.5-2c-2,0-4.9,1.6-6.5,4.4l-3.7,6.4c-0.1,0-0.2-0.1-0.2-0.1l-0.3,0.3c-2.7,3.2-5.4,5.7-7.1,5.7
			c-0.8,0-1.3-0.6-0.4-2.1l5.5-9.6c1.6-2.9,0.1-5-2-5c-1.6,0-3.4,0.9-5.3,2.8l1.4-2.5h-3.8L78,401.9c-0.1-0.1-0.2-0.2-0.4-0.2
			l-0.3,0.3c-2.7,3.2-5.4,5.7-7.1,5.7c-0.8,0-1.3-0.6-0.4-2.1l6.1-10.7H74c0.1-1.6-1.5-3.8-4-3.8c-2,0-4.9,1.6-6.5,4.4l-3.7,6.3
			l-0.2,0.2c-2.7,3.2-5.4,5.7-7.1,5.7c-0.8,0-1.3-0.6-0.4-2.1l3.8-6.6c1.3-2.3,0.7-3.6-0.5-5.1l-2.1-2.6c-0.5-0.7-0.5-1.5,0.2-2.2
			l-2-2.2c-2.2,1.9-2.3,4.1-1,5.8l0.3,0.4c-1.7,2.4-3.9,5.6-6.4,8.5c0.1,0.1,0.2,0.2,0.3,0.3c-3.1,3.6-5.8,5.9-8.8,7.2l4.8-8.2H37
			l-0.4,0.7c-2,3.5-4.3,6.1-7.3,6.1c-2.6,0-3.1-2.6-0.8-6.5l1.1-1.9c0.7,0.1,1.4,0.2,2.2,0.2c13.5,0,20-18.1,8.1-18.1
			c-2.1,0-4.6,1.5-6.3,4.4L27.7,396c-2.2-1.2-3.4-3.3-3.4-5.4c0-1.8,0.8-3.5,2.4-4.8l-1.2-2.2c-2.7,1.9-3.9,4.5-3.9,7.1
			c0,3,1.7,5.9,4.8,7.5l-1.1,2c-2.7,4.6-2.2,9.7,3.2,9.7c1.6,0,3-0.5,4.1-1.2l-1,1.7c-5.1,1.6-8.3,3.6-8.3,6.5
			c0,3.6,5.6,4.4,8.3-0.3l2.9-5c3.9-1.2,7.8-3.9,12-8.8c-0.1-0.1-0.1-0.2-0.2-0.4c1.7-2,3.1-3.9,6-7.8l0.5,0.6
			c0.5,0.6,0.7,1.4,0.2,2.2l-4,7c-1.6,2.8-0.5,5.4,2.6,5.4c1.9,0,4-1.2,6-3c0,1.7,1.1,3,3.3,3c1.5,0,3.4-1,5.3-2.5
			c0.2,1.5,1.4,2.5,3.3,2.5c1.8,0,3.8-1.1,5.7-2.8l-1.4,2.4h3.8l5.8-10.1c5.8-7.3,8.4-6.3,6.7-3.5l-4.9,8.6
			c-1.6,2.8-0.5,5.4,2.6,5.4c2,0,4.2-1.4,6.4-3.3c-0.2,1.9,1,3.3,3.3,3.3c1.5,0,3.4-1,5.3-2.5c0.2,1.5,1.4,2.5,3.3,2.5
			c3.1,0,6.7-3.4,9.9-7C115.6,402.6,114.9,402,114.4,401.8z M36.5,387.6c1.1-1.9,2.4-2.8,3.4-2.8c6,0,1.8,12.3-8.1,12.3H31
			L36.5,387.6z M28.4,416.2c-0.8,1.4-2.1,1.2-2.1,0.2s0.9-2.1,3.8-3.2L28.4,416.2z M68.1,402.4c-2.3,3.6-4.6,5.3-6.1,5.3
			c-0.8,0-1.3-0.6-0.4-2.1l5.3-9.2c2-3.5,6.1-2.6,4.2,0.8L68.1,402.4z M104.8,402.2c-2.3,3.8-4.6,5.5-6.2,5.5
			c-0.8,0-1.3-0.6-0.4-2.1l5.3-9.2c2-3.5,6.1-2.6,4.2,0.8l0,0L104.8,402.2z"/>
		<path fill="#FFFFFF" d="M-12.3,437.8l-0.3,0.3c-2.7,3.2-5.4,5.7-7.1,5.7c-0.8,0-1.3-0.6-0.4-2.1l5.5-9.6c1.6-2.9,0.1-5-2-5
			c-1.6,0-3.4,0.9-5.3,2.8l1.4-2.5h-3.8l-6.1,10.6c-0.2-0.1-0.3-0.2-0.5-0.3l-0.3,0.3c-1.7,1.9-3.8,2.8-5.7,2.8l3.6-6.2
			c2.3-4,0.2-7.7-3.4-7.7c-2.9,0-5.2,1.2-7.4,5l-1.9,3.2l-1.6,2.8c-0.1-0.1-0.2-0.1-0.3-0.2l-0.3,0.3c-3.1,3.6-5.8,5.9-8.8,7.2
			l10.4-17.8h-3.8l-6.7,11.7c-2.9,2.7-5.2,4.2-5.9,3.9c-0.9-0.4,0-1.8,0.5-2.6l7.4-12.9H-59l-6.1,10.5c-0.1-0.1-0.2-0.1-0.3-0.2
			l-0.3,0.3c-2.7,3.2-5.4,5.7-7.1,5.7c-0.8,0-1.3-0.6-0.4-2.1l5.5-9.6c1.6-2.9,0.1-5-2-5c-1.6,0-3.4,0.9-5.3,2.8l1.4-2.5h-3.8
			l-6.1,10.5c-0.1-0.1-0.2-0.2-0.4-0.2l-0.3,0.3c-2.7,3.2-5.4,5.7-7.1,5.7c-0.8,0-1.3-0.6-0.4-2.1l6.1-10.7h-2.2
			c0.1-1.6-1.5-3.8-4-3.8c-2,0-4.9,1.6-6.5,4.4l-3.9,6.8c-0.3-0.2-0.6-0.4-0.8-0.5l-0.3,0.3c-2.7,3.2-6.1,5.7-9.8,5.7
			c-2.6,0-4.2-2.6-1.9-6.5l1.1-1.9c0.7,0.1,1.4,0.2,2.2,0.2c4,0,8.6-2.1,11.6-7.3c1.1-1.9,1.5-3.6,1.5-5.1c0-3.4-2.2-5.7-5-5.7
			c-2.1,0-4.6,1.5-6.3,4.4l-5.9,10.2c-2.2-1.2-3.4-3.3-3.4-5.4c0-1.8,0.8-3.5,2.4-4.8l-1.2-2.2c-2.7,1.9-3.9,4.5-3.9,7.1
			c0,3,1.7,5.9,4.8,7.5l-1.1,2c-2.7,4.6-1.1,9.7,4.3,9.7c4.2,0,7.4-1.9,10-4.4c-0.8,2.4,0.4,4.4,3.1,4.4c1.5,0,3.4-1,5.3-2.5
			c0.2,1.5,1.4,2.5,3.3,2.5c1.8,0,3.8-1.1,5.7-2.8l-1.4,2.4h3.8l5.8-10.1c5.8-7.3,8.4-6.3,6.7-3.5l-4.9,8.6
			c-1.6,2.8-0.5,5.4,2.6,5.4c2,0,4.3-1.4,6.5-3.4c-0.5,2.1,0.5,3.4,2.4,3.4c1.8,0,3.9-1.5,5.6-3.1l-2.1,3.6
			c-5.1,1.5-8.4,3.6-8.4,6.5c0,3.6,5.6,4.4,8.3-0.3l2.9-5c3.2-1,6.3-3,9.6-6.2c-0.5,5.3,6.5,6.5,10.8,1.1h0.8c1.4,0,3.3-0.5,5-1.5
			l-2.5,4.4h3.8l5.8-10.1c5.8-7.3,8.4-6.3,6.7-3.5l-4.9,8.6c-1.6,2.8-0.5,5.4,2.6,5.4s6.7-3.4,9.9-7
			C-11.1,438.6-11.8,438-12.3,437.8z M-106.7,423.6c1.1-1.9,2.4-2.8,3.4-2.8c1.4,0,2.1,0.9,2.1,2.3c0,3.5-4.3,9.9-10.2,9.9h-0.8
			L-106.7,423.6z M-93.3,438.4c-2.3,3.6-4.6,5.3-6.1,5.3c-0.8,0-1.3-0.6-0.4-2.1l5.3-9.2c2-3.5,6.1-2.6,4.2,0.8L-93.3,438.4z
			 M-64.5,452.2c-0.8,1.4-2.1,1.2-2.1,0.2s0.9-2.1,3.8-3.2L-64.5,452.2z M-38.9,438h-0.2c-1.2,0-2.2,1-2.2,2.3
			c0,0.5,0.1,0.9,0.4,1.3v0.1c-1.8,3.1-6.1,2.5-3.9-1.5l2.9-5l1.8-3.1c2.7-4.5,6.3-2.7,4,1.2L-38.9,438z"/>
		<path fill="#FFFFFF" d="M75.6,439.1c-0.2-0.6-0.9-1.2-1.4-1.3l-0.3,0.3c-1.4,1.6-3.1,3.1-4.6,4.1c1.2-3.6,0.9-9.2,3.3-14l-2.8-1.5
			c-1.6,2.2-5,7.1-8.4,11.1l0,0l0,0l-0.3,0.3c-2.7,3.2-5.4,5.7-7.1,5.7c-0.8,0-1.6-0.8-1.6-2.6v-1.6c2.7,0.3,5.5-1.4,7.3-4.5l1-1.8
			c3.5-6.1-2.2-8.1-6.1-4.5l5.4-9.4h-3.8l-10.8,18.8c-0.2-0.2-0.5-0.4-0.7-0.5l-0.3,0.3c-2.7,3.2-6.2,5.7-8.9,5.7
			c-2.3,0-3.7-1.5-2-4.5l3.9-6.8c2.2-3.8,6.1-3.1,3.8,0.8l-0.5,0.9h3.1l0.5-0.9c2-3.5,0.1-6.1-3-6.1s-5.5,1.6-7.1,4.4l-3.7,6.4
			c-0.1,0-0.2-0.1-0.2-0.1l-0.3,0.3c-2.7,3.2-5.4,5.7-7.1,5.7c-0.8,0-1.3-0.6-0.4-2.1l8.1-14.2h-3.8l-6.7,11.8
			c-2.9,2.6-5.1,4.1-5.8,3.8c-0.9-0.4,0-1.8,0.5-2.6l7.4-12.9h-3.8L11,440.3c-0.8,0.7-1.7,1.4-2.4,2c1.2-3.6,0.9-9.2,3.3-14
			l-2.8-1.5C7.5,429-1.2,440.6-4.7,444.6c0.3,0.5,0.9,0.9,1.4,1.3c2.2-2.5,9.4-11.8,10.7-13.6c-1.5,3.9-0.7,11-4.3,11
			c-1.3,0-1.8-1.4-1.8-1.4l-2.4,1.2c0,0,0.7,3.1,4.2,3.1c0.4,0,0.7,0,1.1-0.1h0.1c1.9-0.3,3.8-1.1,5.6-2.4c0,1.5,0.9,2.5,2.5,2.5
			c2.1,0,4.4-1.9,6.2-3.6c-0.4,2,0.8,3.6,3.2,3.6c2.4,0,5-1.9,7.5-4.4c0,2.5,2,4.4,5.1,4.4s6.1-1.7,8.8-4l-2.1,3.7h3.8l4.3-7.5v3
			c0,3.2,0.6,4.9,3.7,4.9s6.7-3.4,9.9-7l0,0l0,0c2.2-2.5,4-5.1,5.4-6.9c-1.5,3.9-0.7,11-4.3,11c-1.3,0-1.8-1.4-1.8-1.4l-2.4,1.2
			c0,0,0.7,3.1,4.2,3.1c0.4,0,0.7,0,1.1-0.1h0.1C68.9,445.5,72.8,442.4,75.6,439.1z M50.4,436.1l1.1-1.9c4.4-6.1,7.4-4.4,6-2.1
			l-1.8,3.1C54.6,437.2,51.3,438.6,50.4,436.1z"/>
		<path fill="#FFFFFF" d="M75.5,441.7c-1.2,0-2.2,1-2.2,2.2s0.9,2.2,2.2,2.2c1.2,0,2.2-0.9,2.2-2.2
			C77.7,442.7,76.7,441.7,75.5,441.7z"/>
		<polygon fill="#FFFFFF" points="75.7,440.2 79.5,440.2 91.4,419.5 87.6,419.5 		"/>
	</g>
	<g>
		<path fill="#FFFFFF" d="M-168.6,383.6c0,0.3-0.1,0.6-0.2,0.9c-0.1,0.3-0.3,0.6-0.5,0.8c-0.2,0.2-0.5,0.4-0.8,0.6
			c-0.3,0.1-0.7,0.2-1.1,0.2c-0.5,0-0.9-0.1-1.3-0.3c-0.4-0.2-0.8-0.4-1.1-0.7c-0.3-0.3-0.4-0.6-0.6-1c-0.1-0.4-0.2-0.8-0.2-1.3
			c0-0.9,0.2-1.6,0.5-2.4c0.3-0.7,0.7-1.4,1.3-1.9c0.2-0.2,0.5-0.5,0.8-0.7s0.6-0.4,0.9-0.5c0.3-0.1,0.5-0.3,0.7-0.4
			c0.2-0.1,0.3-0.1,0.4-0.2l1.4,2c-0.2,0.1-0.5,0.2-0.8,0.4c-0.3,0.1-0.6,0.3-0.9,0.5s-0.5,0.5-0.7,0.8s-0.3,0.6-0.3,1
			c0.7,0,1.2,0.2,1.7,0.6C-168.8,382.3-168.6,382.9-168.6,383.6z M-160.7,383.6c0,0.3-0.1,0.6-0.2,0.9s-0.3,0.6-0.5,0.8
			c-0.2,0.2-0.5,0.4-0.8,0.6c-0.3,0.1-0.7,0.2-1.1,0.2c-0.5,0-0.9-0.1-1.3-0.3c-0.4-0.2-0.8-0.4-1.1-0.7c-0.2-0.3-0.4-0.6-0.6-1
			c-0.1-0.4-0.2-0.8-0.2-1.3c0-0.9,0.2-1.6,0.5-2.4c0.3-0.7,0.7-1.4,1.3-1.9c0.2-0.2,0.5-0.5,0.8-0.7c0.3-0.2,0.6-0.4,0.9-0.5
			s0.5-0.3,0.7-0.4s0.3-0.1,0.4-0.2l1.4,2c-0.2,0.1-0.5,0.2-0.8,0.4c-0.3,0.1-0.6,0.3-0.9,0.5c-0.3,0.2-0.5,0.5-0.7,0.8
			c-0.2,0.3-0.3,0.6-0.3,1c0.7,0,1.2,0.2,1.7,0.6C-161,382.3-160.7,382.9-160.7,383.6z"/>
	</g>
	<g>
		<path fill="#FFFFFF" d="M104.4,442.5c0-0.3,0.1-0.6,0.2-0.9s0.3-0.6,0.5-0.8c0.2-0.2,0.5-0.4,0.8-0.6c0.3-0.1,0.7-0.2,1.1-0.2
			c0.5,0,0.9,0.1,1.3,0.3c0.4,0.2,0.8,0.4,1.1,0.7c0.3,0.3,0.4,0.6,0.6,1c0.1,0.4,0.2,0.8,0.2,1.3c0,0.9-0.2,1.6-0.5,2.4
			c-0.3,0.7-0.7,1.4-1.3,1.9c-0.2,0.2-0.5,0.5-0.8,0.7s-0.6,0.4-0.9,0.5s-0.5,0.3-0.7,0.4s-0.3,0.1-0.4,0.2l-1.4-2
			c0.2-0.1,0.5-0.2,0.8-0.4c0.3-0.1,0.6-0.3,0.9-0.5s0.5-0.5,0.7-0.8s0.3-0.6,0.3-1c-0.7,0-1.2-0.2-1.7-0.6
			C104.7,443.8,104.4,443.2,104.4,442.5z M96.6,442.5c0-0.3,0.1-0.6,0.2-0.9s0.3-0.6,0.5-0.8c0.2-0.2,0.5-0.4,0.8-0.6
			c0.3-0.1,0.7-0.2,1.1-0.2c0.5,0,0.9,0.1,1.3,0.3c0.4,0.2,0.8,0.4,1.1,0.7c0.2,0.3,0.4,0.6,0.6,1c0.1,0.4,0.2,0.8,0.2,1.3
			c0,0.9-0.2,1.6-0.5,2.4c-0.3,0.7-0.7,1.4-1.3,1.9c-0.2,0.2-0.5,0.5-0.8,0.7s-0.6,0.4-0.9,0.5s-0.5,0.3-0.7,0.4s-0.3,0.1-0.4,0.2
			l-1.4-2c0.3-0.1,0.5-0.2,0.8-0.4c0.3-0.1,0.6-0.3,0.9-0.5s0.5-0.5,0.7-0.8s0.3-0.6,0.3-1c-0.7,0-1.2-0.2-1.7-0.6
			C96.8,443.8,96.6,443.2,96.6,442.5z"/>
	</g>
</g>
</svg>
